<svg xmlns="http://www.w3.org/2000/svg" width="512" height="512">
    <path d="M256 4C118 4 5 116 5 256 5 394 118 506 256 506 395 506 508 394 508 256 508 116 395 4 256 4Z" opacity="1" fill-opacity="0" stroke="#fb6424" stroke-width="1" stroke-opacity="1"></path>
    <path d="M344 47C331 103 266 130 266 130 237 130 198 120 155 147 147 155 138 198 39 189 34 189 30 218 41 253 41 257 34 249 34 254 47 313 111 343 142 351 232 368 237 455 232 476 232 476 211 421 164 404 159 404 189 439 194 499 221 504 240 507 278 506 278 501 278 347 164 330 120 321 47 291 56 219 56 219 99 249 147 254 185 257 189 246 232 249 270 254 321 283 317 283 278 270 251 273 250 279 296 296 330 326 330 326 404 377 381 446 381 446 381 446 373 395 347 377 347 377 346 467 338 493 394 475 439 431 455 409 455 386 459 270 360 198 358 195 414 104 345 41M283 56C274 86 262 109 257 116 254 119 250 125 270 120 270 120 296 107 300 99 300 99 297 68 284 51M353 79C371 124 350 184 326 177 327 175 336 163 336 159 311 173 287 164 287 164 287 164 308 153 317 146 327 139 287 151 287 147 287 147 283 147 287 147 287 147 330 120 351 81M134 451C134 451 143 474 142 479 154 484 154 485 181 495 181 495 161 447 129 439" opacity="1" fill="#fb6424" fill-opacity="1"></path>
</svg>
